<svg width="16" height="17" viewBox="0 0 16 17" fill="none" xmlns="http://www.w3.org/2000/svg">
<path d="M0.335683 1.00365C0.441822 0.897245 0.56791 0.812822 0.706726 0.75522C0.845542 0.697618 0.994358 0.667969 1.14465 0.667969C1.29494 0.667969 1.44376 0.697618 1.58257 0.75522C1.72139 0.812822 1.84748 0.897245 1.95362 1.00365L8.0003 7.05262L14.047 1.00365C14.1532 0.897417 14.2793 0.813147 14.4181 0.755653C14.5569 0.698159 14.7057 0.668567 14.8559 0.668567C15.0062 0.668567 15.155 0.698159 15.2938 0.755653C15.4326 0.813147 15.5587 0.897417 15.6649 1.00365C15.7712 1.10989 15.8554 1.23601 15.9129 1.37481C15.9704 1.51361 16 1.66238 16 1.81262C16 1.96286 15.9704 2.11163 15.9129 2.25043C15.8554 2.38923 15.7712 2.51535 15.6649 2.62159L9.61595 8.66827L15.6649 14.715C15.7712 14.8212 15.8554 14.9473 15.9129 15.0861C15.9704 15.2249 16 15.3737 16 15.5239C16 15.6742 15.9704 15.8229 15.9129 15.9617C15.8554 16.1005 15.7712 16.2267 15.6649 16.3329C15.5587 16.4391 15.4326 16.5234 15.2938 16.5809C15.155 16.6384 15.0062 16.668 14.8559 16.668C14.7057 16.668 14.5569 16.6384 14.4181 16.5809C14.2793 16.5234 14.1532 16.4391 14.047 16.3329L8.0003 10.2839L1.95362 16.3329C1.84738 16.4391 1.72126 16.5234 1.58246 16.5809C1.44366 16.6384 1.29489 16.668 1.14465 16.668C0.994411 16.668 0.845643 16.6384 0.70684 16.5809C0.568038 16.5234 0.441918 16.4391 0.335683 16.3329C0.229448 16.2267 0.145178 16.1005 0.0876841 15.9617C0.0301901 15.8229 0.000598232 15.6742 0.000598232 15.5239C0.000598232 15.3737 0.0301901 15.2249 0.0876841 15.0861C0.145178 14.9473 0.229448 14.8212 0.335683 14.715L6.38465 8.66827L0.335683 2.62159C0.229276 2.51545 0.144854 2.38936 0.0872515 2.25054C0.0296493 2.11173 0 1.96291 0 1.81262C0 1.66233 0.0296493 1.51351 0.0872515 1.37469C0.144854 1.23588 0.229276 1.10979 0.335683 1.00365Z" fill="white"/>
</svg>
